HIERARCHY
ROOT Hips
{
	OFFSET	0.00	0.00	0.00
	CHANNELS 6 Xposition Yposition Zposition Zrotation Xrotation Yrotation
	JOINT LeftUpLeg
	{
		OFFSET	 0.126116	-0.014019	-0.065224
		CHANNELS 3 Zrotation Xrotation Yrotation
		JOINT LeftLeg
		{
			OFFSET	 0.000000	 0.000000	 0.569914
			CHANNELS 3 Zrotation Xrotation Yrotation
			JOINT LeftFoot
			{
				OFFSET	 0.000000	 0.000000	 0.544423
				CHANNELS 3 Zrotation Xrotation Yrotation
				JOINT LeftToeBase
				{
					OFFSET	 0.000000	 0.000000	 0.207117
					CHANNELS 3 Zrotation Xrotation Yrotation
					End Site
					{
						OFFSET	 0.000000	 0.000000	 0.207117
					}
				}
			}
		}
	}
	JOINT RightUpLeg
	{
		OFFSET	-0.124023	-0.008373	-0.065224
		CHANNELS 3 Zrotation Xrotation Yrotation
		JOINT RightLeg
		{
			OFFSET	 0.000000	 0.000000	 0.570047
			CHANNELS 3 Zrotation Xrotation Yrotation
			JOINT RightFoot
			{
				OFFSET	 0.000000	 0.000000	 0.544354
				CHANNELS 3 Zrotation Xrotation Yrotation
				JOINT RightToeBase
				{
					OFFSET	 0.000000	 0.000000	 0.207540
					CHANNELS 3 Zrotation Xrotation Yrotation
					End Site
					{
						OFFSET	 0.000000	 0.000000	 0.207540
					}
				}
			}
		}
	}
	JOINT Spine
	{
		OFFSET	 0.000184	-0.007763	 0.117403
		CHANNELS 3 Zrotation Xrotation Yrotation
		JOINT Spine1
		{
			OFFSET	 0.000000	 0.000000	 0.137269
			CHANNELS 3 Zrotation Xrotation Yrotation
			JOINT Spine2
			{
				OFFSET	 0.000000	 0.000000	 0.156879
				CHANNELS 3 Zrotation Xrotation Yrotation
				JOINT LeftShoulder
				{
					OFFSET	 0.080501	-0.002496	 0.160144
					CHANNELS 3 Zrotation Xrotation Yrotation
					JOINT LeftArm
					{
						OFFSET	 0.000000	 0.000000	 0.164363
						CHANNELS 3 Zrotation Xrotation Yrotation
						JOINT LeftForeArm
						{
							OFFSET	 0.000000	 0.000000	 0.364576
							CHANNELS 3 Zrotation Xrotation Yrotation
							JOINT LeftHand
							{
								OFFSET	 0.000000	 0.000000	 0.360812
								CHANNELS 3 Zrotation Xrotation Yrotation
								JOINT LeftHandIndex1
								{
									OFFSET	 0.000000	 0.000000	 0.086006
									CHANNELS 3 Zrotation Xrotation Yrotation
									JOINT LeftHandIndex2
									{
										OFFSET	 0.000000	 0.000000	 0.047236
										CHANNELS 3 Zrotation Xrotation Yrotation
										JOINT LeftHandIndex3
										{
											OFFSET	-0.004284	-0.000551	 0.038166
											CHANNELS 3 Zrotation Xrotation Yrotation
											End Site
											{
												OFFSET	-0.004284	-0.000551	 0.038166
											}
										}
									}
								}
							}
						}
					}
				}
				JOINT Neck
				{
					OFFSET	 0.000000	 0.000000	 0.176489
					CHANNELS 3 Zrotation Xrotation Yrotation
					JOINT Head
					{
						OFFSET	 0.000000	-0.001747	 0.077940
						CHANNELS 3 Zrotation Xrotation Yrotation
						End Site
						{
							OFFSET	 0.000000	-0.001747	 0.077940
						}
					}
				}
				JOINT RightShoulder
				{
					OFFSET	-0.080363	 0.000306	 0.159706
					CHANNELS 3 Zrotation Xrotation Yrotation
					JOINT RightArm
					{
						OFFSET	 0.000000	 0.000000	 0.164196
						CHANNELS 3 Zrotation Xrotation Yrotation
						JOINT RightForeArm
						{
							OFFSET	 0.000000	 0.000000	 0.365611
							CHANNELS 3 Zrotation Xrotation Yrotation
							JOINT RightHand
							{
								OFFSET	 0.000000	 0.000000	 0.360648
								CHANNELS 3 Zrotation Xrotation Yrotation
								JOINT RightHandIndex1
								{
									OFFSET	 0.000000	 0.000000	 0.069977
									CHANNELS 3 Zrotation Xrotation Yrotation
									JOINT RightHandIndex2
									{
										OFFSET	 0.000000	 0.000000	 0.052305
										CHANNELS 3 Zrotation Xrotation Yrotation
										JOINT RightHandIndex3
										{
											OFFSET	 0.009002	-0.000782	 0.042196
											CHANNELS 3 Zrotation Xrotation Yrotation
											End Site
											{
												OFFSET	 0.009002	-0.000782	 0.042196
											}
										}
									}
								}
							}
						}
					}
				}
			}
		}
	}
}
MOTION
Frames:    6
Frame Time: 0.03333334
-0.016319	 6.767784	 0.685024	 2.204437	 0.688894	 3.694051	 5.042377	-4.062085	 176.492500	-11.184450	-33.845920	-5.143083	 171.974100	 86.477860	 179.419200	-2.377020	 30.265360	-0.039675	 1.763481	-12.702110	 178.984100	 3.674961	-47.706090	 5.744431	-175.536700	 81.984180	-178.516300	 2.403644	 22.157510	-0.129925	-2.369061	 0.715775	-1.928172	-2.940523	-2.092993	-0.376278	-3.128737	-4.146983	-0.319478	-91.809780	 77.601290	 179.139400	 36.678340	 69.865030	-39.668320	-8.009167	-4.016860	-20.065550	 5.870834	-2.214139	-5.335839	-3.812334	 37.924440	-2.927599	-2.450526	 36.184240	 0.754587	-1.378229	 35.397820	-2.634230	 0.491617	 6.025933	-3.213108	-0.516735	-13.336130	-1.803158	 89.765080	 79.272670	-179.642800	-36.351520	 70.383250	 39.080850	 4.254450	-7.795560	 30.531850	-11.335360	-3.196489	 9.596379	 6.437017	 35.671460	-0.771858	 2.830251	 35.756010	-7.813440	-2.350882	 35.473990	 5.254307
-0.014250	 6.780725	 0.684196	 2.457567	 0.796940	 3.738692	 5.002707	-4.350478	 176.544000	-10.968120	-34.242970	-5.097080	 171.954100	 86.121170	 179.609400	-2.375551	 30.539580	-0.045770	 1.866371	-12.941590	 178.968800	 3.935611	-48.259940	 6.074446	-176.097700	 81.509370	-177.790000	 2.403456	 22.263510	-0.127787	-2.367451	 0.748826	-1.984116	-2.953778	-2.106043	-0.434442	-3.178352	-4.168516	-0.325139	-91.808080	 77.620790	 179.166100	 36.588960	 69.750550	-39.637180	-8.112866	-4.043293	-20.588930	 5.734288	-2.203804	-5.339181	-3.812334	 37.924440	-2.927599	-2.450526	 36.184240	 0.754587	-1.378229	 35.397820	-2.634230	 0.465020	 5.675104	-3.503918	-0.531811	-13.031320	-1.501218	 89.764440	 79.251180	-179.622300	-36.272360	 70.488910	 39.096960	 4.245438	-7.728442	 29.987130	-11.428280	-3.199946	 9.594475	 6.437017	 35.671460	-0.771858	 2.830251	 35.756010	-7.813440	-2.350882	 35.473990	 5.254307
-0.009168	 6.780757	 0.683016	 2.357114	 0.840051	 3.594519	 5.178769	-4.683580	 176.800800	-10.794590	-34.760760	-4.941170	 172.407700	 85.689930	 179.516200	-2.374218	 30.781940	-0.051174	 2.178707	-14.079350	 179.162000	 4.470100	-50.433120	 6.989154	-176.273600	 81.134590	-177.320400	 2.400631	 23.629960	-0.099999	-2.390206	 1.141493	-1.741166	-3.135435	-2.168711	-0.478506	-3.460848	-4.258090	-0.356739	-91.799580	 77.794160	 179.249000	 36.665020	 69.462950	-40.109480	-8.203321	-4.035472	-20.971360	 5.565924	-2.191769	-5.342908	-3.812334	 37.924440	-2.927599	-2.450526	 36.184240	 0.754587	-1.378229	 35.397820	-2.634230	 0.137190	 5.590812	-3.177461	-0.850404	-13.149750	-2.072951	 89.768030	 79.068830	-179.632200	-36.472170	 70.588570	 39.713730	 4.210361	-7.702784	 29.385680	-11.630720	-3.205008	 9.591725	 6.437017	 35.671460	-0.771858	 2.830251	 35.756010	-7.813440	-2.350882	 35.473990	 5.254307
-0.003247	 6.780311	 0.681721	 2.003795	 0.878012	 3.074504	 5.792294	-4.788781	 177.367100	-11.013870	-35.000790	-4.676658	 174.627400	 85.428470	 177.773300	-2.372514	 31.083800	-0.057944	 2.299349	-16.533820	 179.881300	 5.493377	-54.587590	 8.479379	-175.893400	 81.524230	-177.540200	 2.388852	 27.388880	-0.021493	-2.326170	 1.748865	-1.094937	-3.248699	-2.254882	-0.377780	-3.600522	-4.461868	-0.377500	-91.790370	 78.044440	 179.315300	 36.837320	 69.091750	-40.989120	-8.261814	-3.997287	-21.003490	 5.451540	-2.189460	-5.344232	-3.812334	 37.924440	-2.927599	-2.450526	 36.184240	 0.754587	-1.378229	 35.397820	-2.634230	-0.006343	 5.397659	-3.198498	-0.967954	-13.398590	-2.268533	 89.774050	 78.806340	-179.693200	-36.838100	 70.641750	 40.557710	 4.250452	-7.656377	 28.963780	-11.723240	-3.208022	 9.589977	 6.437017	 35.671460	-0.771858	 2.830251	 35.756010	-7.813440	-2.350882	 35.473990	 5.254307
 0.003501	 6.779715	 0.679823	 1.384749	 0.916361	 2.253884	 6.542515	-4.552607	 178.321500	-11.516100	-34.837060	-4.384992	 176.104500	 85.366080	 176.688100	-2.370496	 31.430960	-0.065765	 2.662621	-20.726510	-179.034000	 7.928282	-61.201590	 11.735760	-174.172900	 83.661790	-179.006000	 2.353997	 33.711660	 0.119856	-2.164007	 2.386322	-0.152626	-3.281362	-2.307294	-0.130274	-3.658435	-4.712436	-0.391513	-91.781800	 78.321430	 179.365600	 36.933850	 68.644520	-42.023150	-8.260909	-3.953136	-20.748110	 5.429205	-2.197138	-5.342222	-3.812334	 37.924440	-2.927599	-2.450526	 36.184240	 0.754587	-1.378229	 35.397820	-2.634230	-0.030634	 5.313337	-3.335318	-1.002664	-13.868710	-2.394259	 89.778350	 78.520720	-179.725800	-37.346820	 70.653740	 41.521540	 4.294137	-7.623410	 28.733190	-11.761650	-3.208572	 9.589716	 6.437017	 35.671460	-0.771858	 2.830251	 35.756010	-7.813440	-2.350882	 35.473990	 5.254307
 0.011257	 6.777817	 0.677018	 0.565975	 0.968027	 1.335368	 7.526977	-3.844195	 179.417700	-12.217290	-34.062370	-3.967026	 177.798700	 85.468830	 175.422900	-2.365849	 32.192040	-0.083059	 3.167743	-26.833130	-177.968000	 15.870570	-69.492380	 20.528290	-170.702900	 88.364100	 178.292400	 2.371575	 30.980120	 0.057093	-1.999544	 2.965244	 0.849353	-3.286319	-2.257938	 0.231715	-3.662402	-5.006002	-0.401248	-91.776160	 78.526610	 179.345000	 36.811360	 68.043950	-43.014030	-8.226037	-3.865242	-20.176100	 5.406714	-2.209536	-5.339162	-3.812334	 37.924440	-2.927599	-2.450526	 36.184240	 0.754587	-1.378229	 35.397820	-2.634230	 0.012717	 5.304735	-3.511646	-0.972778	-14.519540	-2.469952	 89.780720	 78.318640	-179.717700	-38.249680	 70.600510	 42.954410	 4.243030	-7.615365	 28.579510	-11.816540	-3.190507	 9.598566	 6.437017	 35.671460	-0.771858	 2.830251	 35.756010	-7.813440	-2.350882	 35.473990	 5.254307
